<mxfile host="app.diagrams.net" modified="2023-03-29T13:57:22.762Z" agent="Mozilla/5.0 (Windows NT 10.0; Win64; x64) AppleWebKit/537.36 (KHTML, like Gecko) Chrome/110.0.0.0 Safari/537.36" etag="NMkmrbdHe0w1jzt_hYYg" version="21.1.1" type="github">
  <diagram id="R2lEEEUBdFMjLlhIrx00" name="Page-1">
    <mxGraphModel dx="1687" dy="1999" grid="0" gridSize="10" guides="1" tooltips="1" connect="1" arrows="1" fold="1" page="1" pageScale="1" pageWidth="850" pageHeight="1100" math="0" shadow="0" extFonts="Permanent Marker^https://fonts.googleapis.com/css?family=Permanent+Marker">
      <root>
        <mxCell id="0" />
        <mxCell id="1" parent="0" />
        <mxCell id="jLtFNhoKEC5xuxH08Q8--1" value="name" style="ellipse;whiteSpace=wrap;html=1;" vertex="1" parent="1">
          <mxGeometry x="23" y="283" width="48" height="50" as="geometry" />
        </mxCell>
        <mxCell id="jLtFNhoKEC5xuxH08Q8--9" style="edgeStyle=orthogonalEdgeStyle;rounded=0;orthogonalLoop=1;jettySize=auto;html=1;exitX=0.75;exitY=1;exitDx=0;exitDy=0;entryX=0.5;entryY=0;entryDx=0;entryDy=0;" edge="1" parent="1" source="jLtFNhoKEC5xuxH08Q8--2" target="jLtFNhoKEC5xuxH08Q8--8">
          <mxGeometry relative="1" as="geometry">
            <Array as="points">
              <mxPoint x="181" y="257" />
            </Array>
          </mxGeometry>
        </mxCell>
        <mxCell id="jLtFNhoKEC5xuxH08Q8--11" style="edgeStyle=orthogonalEdgeStyle;rounded=0;orthogonalLoop=1;jettySize=auto;html=1;exitX=0.75;exitY=1;exitDx=0;exitDy=0;" edge="1" parent="1" source="jLtFNhoKEC5xuxH08Q8--2" target="jLtFNhoKEC5xuxH08Q8--10">
          <mxGeometry relative="1" as="geometry" />
        </mxCell>
        <mxCell id="jLtFNhoKEC5xuxH08Q8--14" style="edgeStyle=orthogonalEdgeStyle;rounded=0;orthogonalLoop=1;jettySize=auto;html=1;exitX=1;exitY=0;exitDx=0;exitDy=0;" edge="1" parent="1" source="jLtFNhoKEC5xuxH08Q8--2" target="jLtFNhoKEC5xuxH08Q8--13">
          <mxGeometry relative="1" as="geometry">
            <mxPoint x="231" y="81" as="targetPoint" />
          </mxGeometry>
        </mxCell>
        <mxCell id="jLtFNhoKEC5xuxH08Q8--21" value="1对1" style="edgeLabel;html=1;align=center;verticalAlign=middle;resizable=0;points=[];" vertex="1" connectable="0" parent="jLtFNhoKEC5xuxH08Q8--14">
          <mxGeometry x="-0.2189" y="1" relative="1" as="geometry">
            <mxPoint y="1" as="offset" />
          </mxGeometry>
        </mxCell>
        <mxCell id="jLtFNhoKEC5xuxH08Q8--2" value="Conference event" style="rounded=0;whiteSpace=wrap;html=1;" vertex="1" parent="1">
          <mxGeometry x="108" y="195" width="113" height="62" as="geometry" />
        </mxCell>
        <mxCell id="jLtFNhoKEC5xuxH08Q8--3" value="&amp;nbsp;occurrence number" style="ellipse;whiteSpace=wrap;html=1;" vertex="1" parent="1">
          <mxGeometry x="52" y="325" width="48" height="50" as="geometry" />
        </mxCell>
        <mxCell id="jLtFNhoKEC5xuxH08Q8--4" value="" style="endArrow=classic;html=1;rounded=0;entryX=1;entryY=0;entryDx=0;entryDy=0;exitX=0;exitY=1;exitDx=0;exitDy=0;" edge="1" parent="1" source="jLtFNhoKEC5xuxH08Q8--2" target="jLtFNhoKEC5xuxH08Q8--1">
          <mxGeometry width="50" height="50" relative="1" as="geometry">
            <mxPoint x="132" y="247" as="sourcePoint" />
            <mxPoint x="182" y="197" as="targetPoint" />
          </mxGeometry>
        </mxCell>
        <mxCell id="jLtFNhoKEC5xuxH08Q8--5" value="" style="endArrow=classic;html=1;rounded=0;entryX=0.646;entryY=0.02;entryDx=0;entryDy=0;exitX=0.25;exitY=1;exitDx=0;exitDy=0;entryPerimeter=0;" edge="1" parent="1" source="jLtFNhoKEC5xuxH08Q8--2" target="jLtFNhoKEC5xuxH08Q8--3">
          <mxGeometry width="50" height="50" relative="1" as="geometry">
            <mxPoint x="118" y="267" as="sourcePoint" />
            <mxPoint x="74" y="300" as="targetPoint" />
          </mxGeometry>
        </mxCell>
        <mxCell id="jLtFNhoKEC5xuxH08Q8--6" value="location&amp;nbsp;" style="ellipse;whiteSpace=wrap;html=1;" vertex="1" parent="1">
          <mxGeometry x="103" y="343" width="48" height="50" as="geometry" />
        </mxCell>
        <mxCell id="jLtFNhoKEC5xuxH08Q8--7" value="" style="endArrow=classic;html=1;rounded=0;entryX=0.5;entryY=0;entryDx=0;entryDy=0;exitX=0.442;exitY=1.016;exitDx=0;exitDy=0;exitPerimeter=0;" edge="1" parent="1" source="jLtFNhoKEC5xuxH08Q8--2" target="jLtFNhoKEC5xuxH08Q8--6">
          <mxGeometry width="50" height="50" relative="1" as="geometry">
            <mxPoint x="150" y="262" as="sourcePoint" />
            <mxPoint x="93" y="336" as="targetPoint" />
          </mxGeometry>
        </mxCell>
        <mxCell id="jLtFNhoKEC5xuxH08Q8--8" value="date？" style="ellipse;whiteSpace=wrap;html=1;" vertex="1" parent="1">
          <mxGeometry x="153" y="356" width="48" height="50" as="geometry" />
        </mxCell>
        <mxCell id="jLtFNhoKEC5xuxH08Q8--10" value="URL" style="ellipse;whiteSpace=wrap;html=1;" vertex="1" parent="1">
          <mxGeometry x="189" y="408" width="48" height="50" as="geometry" />
        </mxCell>
        <mxCell id="jLtFNhoKEC5xuxH08Q8--16" style="edgeStyle=orthogonalEdgeStyle;rounded=0;orthogonalLoop=1;jettySize=auto;html=1;exitX=0.25;exitY=0;exitDx=0;exitDy=0;entryX=1;entryY=0.5;entryDx=0;entryDy=0;" edge="1" parent="1" source="jLtFNhoKEC5xuxH08Q8--13" target="jLtFNhoKEC5xuxH08Q8--15">
          <mxGeometry relative="1" as="geometry" />
        </mxCell>
        <mxCell id="jLtFNhoKEC5xuxH08Q8--18" style="edgeStyle=orthogonalEdgeStyle;rounded=0;orthogonalLoop=1;jettySize=auto;html=1;exitX=0.5;exitY=0;exitDx=0;exitDy=0;entryX=1;entryY=0.5;entryDx=0;entryDy=0;" edge="1" parent="1" source="jLtFNhoKEC5xuxH08Q8--13" target="jLtFNhoKEC5xuxH08Q8--17">
          <mxGeometry relative="1" as="geometry" />
        </mxCell>
        <mxCell id="jLtFNhoKEC5xuxH08Q8--20" style="edgeStyle=orthogonalEdgeStyle;rounded=0;orthogonalLoop=1;jettySize=auto;html=1;exitX=0.75;exitY=0;exitDx=0;exitDy=0;" edge="1" parent="1" source="jLtFNhoKEC5xuxH08Q8--13" target="jLtFNhoKEC5xuxH08Q8--19">
          <mxGeometry relative="1" as="geometry">
            <Array as="points">
              <mxPoint x="317" y="-213" />
            </Array>
          </mxGeometry>
        </mxCell>
        <mxCell id="jLtFNhoKEC5xuxH08Q8--23" style="edgeStyle=orthogonalEdgeStyle;rounded=0;orthogonalLoop=1;jettySize=auto;html=1;exitX=1;exitY=0;exitDx=0;exitDy=0;entryX=0;entryY=0.5;entryDx=0;entryDy=0;" edge="1" parent="1" source="jLtFNhoKEC5xuxH08Q8--13" target="jLtFNhoKEC5xuxH08Q8--22">
          <mxGeometry relative="1" as="geometry" />
        </mxCell>
        <mxCell id="jLtFNhoKEC5xuxH08Q8--24" value="1 track对多session&lt;br&gt;" style="edgeLabel;html=1;align=center;verticalAlign=middle;resizable=0;points=[];" vertex="1" connectable="0" parent="jLtFNhoKEC5xuxH08Q8--23">
          <mxGeometry x="-0.2997" y="-2" relative="1" as="geometry">
            <mxPoint as="offset" />
          </mxGeometry>
        </mxCell>
        <mxCell id="jLtFNhoKEC5xuxH08Q8--13" value="Track" style="rounded=0;whiteSpace=wrap;html=1;" vertex="1" parent="1">
          <mxGeometry x="246" y="6" width="92" height="60" as="geometry" />
        </mxCell>
        <mxCell id="jLtFNhoKEC5xuxH08Q8--15" value="type&amp;nbsp;" style="ellipse;whiteSpace=wrap;html=1;" vertex="1" parent="1">
          <mxGeometry x="166" y="-74" width="64" height="60" as="geometry" />
        </mxCell>
        <mxCell id="jLtFNhoKEC5xuxH08Q8--17" value="guideline&amp;nbsp;" style="ellipse;whiteSpace=wrap;html=1;" vertex="1" parent="1">
          <mxGeometry x="169" y="-143" width="64" height="60" as="geometry" />
        </mxCell>
        <mxCell id="jLtFNhoKEC5xuxH08Q8--19" value="page limit" style="ellipse;whiteSpace=wrap;html=1;" vertex="1" parent="1">
          <mxGeometry x="169" y="-245" width="64" height="60" as="geometry" />
        </mxCell>
        <mxCell id="jLtFNhoKEC5xuxH08Q8--25" style="edgeStyle=orthogonalEdgeStyle;rounded=0;orthogonalLoop=1;jettySize=auto;html=1;exitX=0;exitY=0;exitDx=0;exitDy=0;entryX=0.5;entryY=1;entryDx=0;entryDy=0;" edge="1" parent="1" source="jLtFNhoKEC5xuxH08Q8--22" target="jLtFNhoKEC5xuxH08Q8--26">
          <mxGeometry relative="1" as="geometry">
            <mxPoint x="446" y="-465" as="targetPoint" />
          </mxGeometry>
        </mxCell>
        <mxCell id="jLtFNhoKEC5xuxH08Q8--29" style="edgeStyle=orthogonalEdgeStyle;rounded=0;orthogonalLoop=1;jettySize=auto;html=1;exitX=0.25;exitY=0;exitDx=0;exitDy=0;entryX=0.5;entryY=1;entryDx=0;entryDy=0;" edge="1" parent="1" source="jLtFNhoKEC5xuxH08Q8--22" target="jLtFNhoKEC5xuxH08Q8--28">
          <mxGeometry relative="1" as="geometry" />
        </mxCell>
        <mxCell id="jLtFNhoKEC5xuxH08Q8--31" style="edgeStyle=orthogonalEdgeStyle;rounded=0;orthogonalLoop=1;jettySize=auto;html=1;exitX=0.5;exitY=0;exitDx=0;exitDy=0;entryX=0.5;entryY=1;entryDx=0;entryDy=0;" edge="1" parent="1" source="jLtFNhoKEC5xuxH08Q8--22" target="jLtFNhoKEC5xuxH08Q8--30">
          <mxGeometry relative="1" as="geometry" />
        </mxCell>
        <mxCell id="jLtFNhoKEC5xuxH08Q8--32" style="edgeStyle=orthogonalEdgeStyle;rounded=0;orthogonalLoop=1;jettySize=auto;html=1;exitX=0.75;exitY=0;exitDx=0;exitDy=0;entryX=0.5;entryY=1;entryDx=0;entryDy=0;" edge="1" parent="1" source="jLtFNhoKEC5xuxH08Q8--22" target="jLtFNhoKEC5xuxH08Q8--33">
          <mxGeometry relative="1" as="geometry">
            <mxPoint x="634.9411764705883" y="-491.7058823529412" as="targetPoint" />
          </mxGeometry>
        </mxCell>
        <mxCell id="jLtFNhoKEC5xuxH08Q8--38" style="edgeStyle=orthogonalEdgeStyle;rounded=0;orthogonalLoop=1;jettySize=auto;html=1;exitX=1;exitY=0.5;exitDx=0;exitDy=0;entryX=0;entryY=0.5;entryDx=0;entryDy=0;" edge="1" parent="1">
          <mxGeometry relative="1" as="geometry">
            <mxPoint x="687" y="-380.0000000000002" as="sourcePoint" />
            <mxPoint x="911.9999999999995" y="-380.0000000000002" as="targetPoint" />
          </mxGeometry>
        </mxCell>
        <mxCell id="jLtFNhoKEC5xuxH08Q8--39" value="多对1" style="edgeLabel;html=1;align=center;verticalAlign=middle;resizable=0;points=[];" vertex="1" connectable="0" parent="jLtFNhoKEC5xuxH08Q8--38">
          <mxGeometry x="-0.3103" y="1" relative="1" as="geometry">
            <mxPoint as="offset" />
          </mxGeometry>
        </mxCell>
        <mxCell id="jLtFNhoKEC5xuxH08Q8--22" value="session" style="rounded=0;whiteSpace=wrap;html=1;" vertex="1" parent="1">
          <mxGeometry x="502" y="-410" width="184" height="60" as="geometry" />
        </mxCell>
        <mxCell id="jLtFNhoKEC5xuxH08Q8--26" value="session name" style="ellipse;whiteSpace=wrap;html=1;" vertex="1" parent="1">
          <mxGeometry x="385" y="-540" width="72" height="78" as="geometry" />
        </mxCell>
        <mxCell id="jLtFNhoKEC5xuxH08Q8--28" value="start data and time" style="ellipse;whiteSpace=wrap;html=1;" vertex="1" parent="1">
          <mxGeometry x="457" y="-570" width="72" height="78" as="geometry" />
        </mxCell>
        <mxCell id="jLtFNhoKEC5xuxH08Q8--30" value="end data and time" style="ellipse;whiteSpace=wrap;html=1;" vertex="1" parent="1">
          <mxGeometry x="526" y="-593" width="72" height="78" as="geometry" />
        </mxCell>
        <mxCell id="jLtFNhoKEC5xuxH08Q8--33" value="number of papers to be presented" style="ellipse;whiteSpace=wrap;html=1;" vertex="1" parent="1">
          <mxGeometry x="604" y="-588" width="72" height="78" as="geometry" />
        </mxCell>
        <mxCell id="jLtFNhoKEC5xuxH08Q8--37" value="researcher" style="rounded=0;whiteSpace=wrap;html=1;" vertex="1" parent="1">
          <mxGeometry x="911" y="-410" width="120" height="60" as="geometry" />
        </mxCell>
      </root>
    </mxGraphModel>
  </diagram>
</mxfile>
